<?xml version="1.0" encoding="UTF-8"?>
<svg class="css-1j8o68f" width="429" height="56.1" viewBox="0 0 390 51" xmlns="http://www.w3.org/2000/svg">
<g fill="#111" featurekey="symbolContainer">
<rect width="90" height="51" rx="5"/>
</g>
<g transform="matrix(.80863 0 0 .80863 8.1078 -5.1133)" fill="#f6f6f6" featurekey="monogramFeature-0">
<path d="m27 23.58q-0.78-0.12-1.29-0.72t-0.51-1.38v-4.38q0-1.02 0.72-1.62t1.68-0.48q5.16 0.84 9.18 3.66 5.22 3.78 7.38 10.02 0.36 1.02-0.24 1.92t-1.74 0.9h-4.8q-0.66 0-1.2-0.33t-0.78-0.93q-1.32-3.12-4.02-4.98-2.1-1.32-4.38-1.68zm15.18 19.92q1.14 0 1.74 0.9t0.24 1.92q-2.16 6.24-7.38 10.02-4.02 2.82-9.18 3.66h-0.3q-0.84 0-1.38-0.54-0.72-0.54-0.72-1.56v-4.38q0-0.78 0.48-1.38t1.26-0.72q2.52-0.36 4.44-1.68 2.7-1.86 4.02-4.98 0.24-0.6 0.78-0.93t1.2-0.33h4.8zm-21.48-27.78q0.78 0.6 0.78 1.62v4.68q0 0.66-0.45 1.23t-1.11 0.81q-0.84 0.18-1.32 0.42-2.4 1.08-4.08 2.94-3.42 3.84-3.42 10.05t3.42 10.11q2.1 2.4 5.4 3.36 0.66 0.18 1.11 0.75t0.45 1.23v4.74q0 1.02-0.78 1.62-0.54 0.48-1.38 0.48h-0.42q-6.42-1.38-10.86-6.24-5.7-6.42-5.7-16.02t5.7-16.02q4.44-4.92 10.86-6.18 0.96-0.24 1.8 0.42zm58.8 26.58 9.06 13.86q0.66 1.08 0.06 2.16-0.24 0.48-0.75 0.78t-1.05 0.3h-5.46q-0.54 0-1.02-0.27t-0.72-0.69l-9.12-14.46h-10.68v13.32q0 0.84-0.63 1.47t-1.47 0.63h-4.56q-0.84 0-1.47-0.63t-0.63-1.47v-19.74q0-0.84 0.63-1.47t1.47-0.63h18.48q5.28 0 7.02-3 0.6-0.96 0.6-2.76 0-2.82-1.86-4.44-1.92-1.74-5.52-1.74h-18.72q-0.84 0-1.47-0.63t-0.63-1.47v-4.32q0-0.84 0.63-1.47t1.47-0.63h19.26q7.02 0 11.22 3.96 4.38 3.96 4.38 10.74 0 4.38-1.92 7.47t-5.58 4.71z"/>
</g>
<g transform="matrix(.77559 0 0 .77559 108.79 6.2545)" fill="#111" featurekey="nameFeature-0">
<path d="m18 15.72q-0.52-0.08-0.86-0.48t-0.34-0.92v-2.92q0-0.68 0.48-1.08t1.12-0.32q3.44 0.56 6.12 2.44 3.48 2.52 4.92 6.68 0.24 0.68-0.16 1.28t-1.16 0.6h-3.2q-0.44 0-0.8-0.22t-0.52-0.62q-0.88-2.08-2.68-3.32-1.4-0.88-2.92-1.12zm10.12 13.28q0.76 0 1.16 0.6t0.16 1.28q-1.44 4.16-4.92 6.68-2.68 1.88-6.12 2.44h-0.2q-0.56 0-0.92-0.36-0.48-0.36-0.48-1.04v-2.92q0-0.52 0.32-0.92t0.84-0.48q1.68-0.24 2.96-1.12 1.8-1.24 2.68-3.32 0.16-0.4 0.52-0.62t0.8-0.22h3.2zm-14.32-18.52q0.52 0.4 0.52 1.08v3.12q0 0.44-0.3 0.82t-0.74 0.54q-0.56 0.12-0.88 0.28-1.6 0.72-2.72 1.96-2.28 2.56-2.28 6.7t2.28 6.74q1.4 1.6 3.6 2.24 0.44 0.12 0.74 0.5t0.3 0.82v3.16q0 0.68-0.52 1.08-0.36 0.32-0.92 0.32h-0.28q-4.28-0.92-7.24-4.16-3.8-4.28-3.8-10.68t3.8-10.68q2.96-3.28 7.24-4.12 0.64-0.16 1.2 0.28zm35.376-0.16q0.48 0.4 0.48 1.08v3q0 0.52-0.3 0.9t-0.82 0.5q-2.56 0.52-4.36 2.44-2.44 2.56-2.44 6.66t2.44 6.7q1.8 1.88 4.36 2.4 0.52 0.12 0.82 0.5t0.3 0.9v3q0 0.64-0.48 1.08-0.44 0.32-0.92 0.32h-0.24q-4.64-0.76-7.96-4.2-4.16-4.28-4.16-10.66t4.16-10.74q3.24-3.36 7.96-4.16 0.64-0.12 1.16 0.28zm12.56 3.88q4.16 4.36 4.16 10.74t-4.16 10.66q-3.32 3.44-7.96 4.2h-0.24q-0.48 0-0.92-0.32-0.48-0.44-0.48-1.08v-3q0-0.52 0.3-0.9t0.82-0.5q2.56-0.52 4.36-2.4 2.44-2.6 2.44-6.7t-2.44-6.66q-1.8-1.92-4.36-2.44-0.52-0.12-0.82-0.5t-0.3-0.9v-3q0-0.68 0.5-1.08t1.14-0.28q4.72 0.8 7.96 4.16zm30.376-3.16q2.44 0.92 4.4 2.96 4.2 4.24 4.2 10.82t-4.2 10.86q-1.96 2.04-4.4 2.96-2.52 1.04-5.16 1.04h-11.32q-0.56 0-0.98-0.42t-0.42-0.98v-2.88q0-0.6 0.42-1.02t0.98-0.42h11.2q3.56 0 5.78-2.6t2.22-6.52-2.22-6.52-5.78-2.6h-11.2q-0.56 0-0.98-0.42t-0.42-1.02v-2.88q0-0.56 0.42-0.98t0.98-0.42h11.32q2.64 0 5.16 1.04zm38.136 22.88q0.6 0 1 0.42t0.4 1.02v2.92q0 0.56-0.4 0.98t-1 0.42h-19.76q-0.56 0-0.98-0.42t-0.42-0.98v-2.92q0-0.6 0.42-1.02t0.98-0.42h19.76zm-19.76-6.2q-0.56 0-0.98-0.42t-0.42-0.98v-3q0-0.56 0.42-0.98t0.98-0.42h17.96q0.6 0 1.02 0.42t0.42 0.98v3q0 0.56-0.42 0.98t-1.02 0.42h-17.96zm19.76-17.72q0.6 0 1 0.42t0.4 0.98v2.92q0 0.6-0.4 1.02t-1 0.42h-19.76q-0.56 0-0.98-0.42t-0.42-1.02v-2.92q0-0.56 0.42-0.98t0.98-0.42h19.76zm28.736 18.2 6.04 9.24q0.44 0.72 0.04 1.44-0.16 0.32-0.5 0.52t-0.7 0.2h-3.64q-0.36 0-0.68-0.18t-0.48-0.46l-6.08-9.64h-7.12v8.88q0 0.56-0.42 0.98t-0.98 0.42h-3.04q-0.56 0-0.98-0.42t-0.42-0.98v-13.16q0-0.56 0.42-0.98t0.98-0.42h12.32q3.52 0 4.68-2 0.4-0.64 0.4-1.84 0-1.88-1.24-2.96-1.28-1.16-3.68-1.16h-12.48q-0.56 0-0.98-0.42t-0.42-0.98v-2.88q0-0.56 0.42-0.98t0.98-0.42h12.84q4.68 0 7.48 2.64 2.92 2.64 2.92 7.16 0 2.92-1.28 4.98t-3.72 3.14zm35.576 5.72q0.6 0 1 0.42t0.4 1.02v2.92q0 0.56-0.4 0.98t-1 0.42h-19.76q-0.56 0-0.98-0.42t-0.42-0.98v-2.92q0-0.6 0.42-1.02t0.98-0.42h19.76zm-19.76-6.2q-0.56 0-0.98-0.42t-0.42-0.98v-3q0-0.56 0.42-0.98t0.98-0.42h17.96q0.6 0 1.02 0.42t0.42 0.98v3q0 0.56-0.42 0.98t-1.02 0.42h-17.96zm19.76-17.72q0.6 0 1 0.42t0.4 0.98v2.92q0 0.6-0.4 1.02t-1 0.42h-19.76q-0.56 0-0.98-0.42t-0.42-1.02v-2.92q0-0.56 0.42-0.98t0.98-0.42h19.76zm23.256 0q4.76 0 7.68 2.74t2.92 7.3-2.88 7.28-7.72 2.72h-7.64v8.16q0 0.56-0.42 0.98t-0.98 0.42h-3.04q-0.56 0-0.98-0.42t-0.42-0.98v-12.4q0-0.56 0.42-0.98t0.98-0.42h11.84q2.68 0 3.84-1.16 1.16-1.04 1.16-3.16t-1.2-3.26-3.8-1.14h-11.84q-0.56 0-0.98-0.42t-0.42-0.98v-2.88q0-0.56 0.42-0.98t0.98-0.42h12.08zm28.536 24.12q0.48 0.16 0.76 0.54t0.28 0.86v3.08q0 0.64-0.52 1.08-0.4 0.32-0.88 0.32-0.2 0-0.28-0.04-3.72-0.72-6.4-3.44-3.6-3.68-3.6-9.68v-15.4q0-0.6 0.42-1.02t0.98-0.42h3.08q0.6 0 1.02 0.42t0.42 1.02v15.48q0 3.8 2.16 5.8 1.12 1.04 2.56 1.4zm13.8-24.12q0.6 0 1.02 0.42t0.42 1.02v15.4q0 6-3.6 9.68-2.68 2.72-6.4 3.44-0.08 0.04-0.28 0.04-0.48 0-0.88-0.32-0.52-0.4-0.52-1.12v-3.08q0-0.44 0.28-0.82t0.76-0.54q1.52-0.44 2.56-1.4 2.16-1.92 2.16-5.8v-15.48q0-0.6 0.42-1.02t1.02-0.42h3.04zm32.256 14.36q2.08 1.28 3.04 3.68 0.56 1.28 0.56 3.16 0 2.92-1.56 4.9t-4.56 2.94q-1.88 0.64-4.44 0.64h-12.76q-0.56 0-0.98-0.42t-0.42-0.98v-2.88q0-0.6 0.42-1.02t0.98-0.42h13.08q2.32 0 3.44-0.84 0.96-0.8 0.96-2.18t-1-2.26q-1.24-1.08-3.72-1.08h-12.76q-0.56 0-0.98-0.42t-0.42-1.02v-2.76q0-0.56 0.42-0.98t0.98-0.42h12.04q1.72 0 2.68-0.6 0.68-0.4 1.08-1.16 0.28-0.56 0.28-1.3t-0.2-1.34q-0.16-0.48-0.56-0.88-0.88-1-2.92-1h-12.4q-0.56 0-0.98-0.42t-0.42-1.02v-2.88q0-0.56 0.42-0.98t0.98-0.42h12.04q4.96 0 7.64 2.8 2.28 2.28 2.28 5.72 0 3.68-2.24 5.84zm15.816 8.2q0.56 0 0.98 0.4t0.42 1v4.16q0 0.56-0.42 0.98t-0.98 0.42h-3.64q-0.6 0-1-0.42t-0.4-0.98v-4.16q0-0.6 0.4-1t1-0.4h3.64zm14.616-10.68q0.6 0 1 0.42t0.4 1.02v14.96q0 0.56-0.4 0.98t-1 0.42h-3.04q-0.56 0-0.98-0.42t-0.42-0.98v-14.96q0-0.6 0.42-1.02t0.98-0.42h3.04zm0-11.88q0.6 0 1 0.42t0.4 0.98v7.4q0 0.6-0.4 1.02t-1 0.42h-3.04q-0.56 0-0.98-0.42t-0.42-1.02v-7.4q0-0.56 0.42-0.98t0.98-0.42h3.04zm23.016 0.32q0.48 0.4 0.48 1.08v3q0 0.52-0.3 0.9t-0.82 0.5q-2.56 0.52-4.36 2.44-2.44 2.56-2.44 6.66t2.44 6.7q1.8 1.88 4.36 2.4 0.52 0.12 0.82 0.5t0.3 0.9v3q0 0.64-0.48 1.08-0.44 0.32-0.92 0.32h-0.24q-4.64-0.76-7.96-4.2-4.16-4.28-4.16-10.66t4.16-10.74q3.24-3.36 7.96-4.16 0.64-0.12 1.16 0.28zm12.56 3.88q4.16 4.36 4.16 10.74t-4.16 10.66q-3.32 3.44-7.96 4.2h-0.24q-0.48 0-0.92-0.32-0.48-0.44-0.48-1.08v-3q0-0.52 0.3-0.9t0.82-0.5q2.56-0.52 4.36-2.4 2.44-2.6 2.44-6.7t-2.44-6.66q-1.8-1.92-4.36-2.44-0.52-0.12-0.82-0.5t-0.3-0.9v-3q0-0.68 0.5-1.08t1.14-0.28q4.72 0.8 7.96 4.16z"/>
</g>
</svg>
